<svg width="96" height="47" viewBox="0 0 96 47" fill="none" xmlns="http://www.w3.org/2000/svg">
<path d="M5.09844 26.0031C4.17453 25.1844 3.41337 24.4738 2.83012 23.913C3.41337 23.3523 4.17453 22.6416 5.09844 21.823C7.47329 19.7188 10.9132 16.9103 15.1614 14.1035C23.6924 8.46689 35.302 2.95652 48 2.95652C60.698 2.95652 72.3076 8.46689 80.8386 14.1035C85.0868 16.9103 88.5267 19.7188 90.9016 21.823C91.8255 22.6416 92.5866 23.3523 93.1699 23.913C92.5866 24.4738 91.8255 25.1844 90.9016 26.0031C88.5267 28.1073 85.0868 30.9158 80.8386 33.7226C72.3076 39.3592 60.698 44.8696 48 44.8696C35.302 44.8696 23.6924 39.3592 15.1614 33.7226C10.9132 30.9158 7.47329 28.1073 5.09844 26.0031Z" stroke="#060606" stroke-width="4"/>
<circle cx="48" cy="23.913" r="16.7826" stroke="black" stroke-width="4"/>
<circle cx="48" cy="23.913" r="8.43478" stroke="black" stroke-width="4"/>
</svg>
