<svg width="50" height="51" viewBox="0 0 50 51" fill="none" xmlns="http://www.w3.org/2000/svg">
<path d="M50 25.5C50 11.4152 38.8086 0 25 0C11.1914 0 0 11.4152 0 25.5C0 39.5848 11.1914 51 25 51C25.1465 51 25.293 51 25.4395 50.99V31.1479H20.0684V24.7629H25.4395V20.0613C25.4395 14.6127 28.7012 11.6443 33.4668 11.6443C35.752 11.6443 37.7148 11.8137 38.2812 11.8934V17.591H35C32.4121 17.591 31.9043 18.8461 31.9043 20.6889V24.7529H38.1055L37.2949 31.1379H31.9043V50.0139C42.3535 46.9559 50 37.1443 50 25.5V25.5Z" fill="white"/>
</svg>
