<svg width="50" height="50" viewBox="0 0 50 50" fill="none" xmlns="http://www.w3.org/2000/svg">
<path d="M9.24586 36.2278C9.0653 36.1403 8.8693 36.1768 8.8153 36.3069C8.75709 36.4339 8.85817 36.6066 9.03981 36.6898C9.21842 36.7773 9.41324 36.7398 9.46842 36.6128C9.5316 36.4858 9.4275 36.311 9.24586 36.2278Z" fill="white"/>
<path d="M10.4102 37.2342C10.2459 37.0573 10.0203 37.0042 9.89798 37.1166C9.77659 37.231 9.80716 37.4694 9.97044 37.6464C10.1286 37.8244 10.3622 37.8775 10.4817 37.765C10.6062 37.6505 10.5735 37.4142 10.4102 37.2342Z" fill="white"/>
<path d="M11.4704 38.6195C11.3133 38.3947 11.0663 38.2968 10.9122 38.4051C10.7551 38.5144 10.7551 38.786 10.9081 39.0129C11.0632 39.2399 11.3132 39.3419 11.4673 39.2326C11.6234 39.1222 11.6234 38.8496 11.4704 38.6195Z" fill="white"/>
<path d="M12.6806 40.0008C12.4652 39.7916 12.1714 39.7488 12.0326 39.9029C11.8959 40.0569 11.9561 40.3495 12.1744 40.5545C12.3887 40.7647 12.6806 40.8064 12.8173 40.6523C12.9633 40.4993 12.897 40.2058 12.6806 40.0008Z" fill="white"/>
<path d="M14.2713 40.953C13.9856 40.8625 13.703 40.9572 13.6448 41.158C13.5876 41.3599 13.7723 41.5941 14.0549 41.6815C14.3386 41.7658 14.6192 41.6753 14.6804 41.4755C14.7387 41.2726 14.5541 41.0405 14.2713 40.953Z" fill="white"/>
<path d="M16.1857 41.2569C15.8866 41.2621 15.652 41.4338 15.652 41.6462C15.655 41.8533 15.8969 42.024 16.1958 42.0168C16.4928 42.0137 16.7336 41.8388 16.7264 41.6286C16.7265 41.4204 16.4825 41.2507 16.1857 41.2569Z" fill="white"/>
<path d="M18.6306 41.2986C18.5928 41.0894 18.3276 40.9666 18.0326 41.0186C17.7418 41.0726 17.5317 41.2839 17.5684 41.4942C17.6051 41.6972 17.8735 41.8241 18.1643 41.77C18.4592 41.7138 18.6654 41.5036 18.6306 41.2986Z" fill="white"/>
<path d="M50 25.5C50 26.4606 49.9479 27.4088 49.8459 28.3425C49.8347 28.4465 49.8234 28.5516 49.8112 28.6557C49.747 29.1844 49.6663 29.709 49.5714 30.2274C49.553 30.3304 49.5336 30.4324 49.5132 30.5334C47.7458 39.5416 41.3265 46.8346 32.9173 49.6937C31.6499 49.9435 31.1999 49.1494 31.1999 48.4697C31.1999 47.6298 31.2285 44.8841 31.2285 41.4723C31.2285 39.093 30.4295 37.5411 29.5336 36.7501C33.8632 36.2588 38.3642 34.8453 40.1499 29.6309C40.1856 29.5289 40.2193 29.4248 40.252 29.3197C40.352 29.0023 40.4407 28.6713 40.5203 28.3257C40.5438 28.2227 40.5673 28.1186 40.5887 28.0124C40.8224 26.8832 40.9489 25.6082 40.9489 24.1676C40.9489 21.3844 39.9785 19.1093 38.3755 17.3233C38.6356 16.6811 39.4918 14.0874 38.1306 10.5746C38.1306 10.5746 36.0347 9.88982 31.2622 13.1892C29.2643 12.624 27.1244 12.3409 25 12.3305C22.8755 12.3409 20.7367 12.6241 18.7418 13.1892C13.9652 9.88982 11.8652 10.5746 11.8652 10.5746C10.5081 14.0874 11.3643 16.6811 11.6234 17.3233C10.0244 19.1093 9.04687 21.3845 9.04687 24.1676C9.04687 25.6071 9.17344 26.8821 9.40811 28.0114C9.42949 28.1175 9.45195 28.2216 9.47549 28.3246C9.55508 28.6702 9.64492 29.0022 9.74492 29.3196C9.77754 29.4247 9.8123 29.5288 9.84697 29.6308C11.6316 34.8359 16.1204 36.2692 20.4378 36.7698C19.7225 37.4068 19.0745 38.5319 18.85 40.1805C17.4234 40.8321 13.8051 41.9583 11.5755 38.0603C11.5755 38.0603 10.253 35.6123 7.74287 35.4322C7.74287 35.4322 5.30303 35.4 7.57246 36.9821C7.57246 36.9821 9.21025 37.7669 10.3479 40.7134C10.3479 40.7134 11.8153 45.2649 18.7704 43.7224C18.7816 45.853 18.8041 47.8618 18.8041 48.4696C18.8041 49.143 18.3459 49.933 17.0959 49.6967C8.68164 46.8398 2.25508 39.5458 0.486719 30.5334V30.5324C0.466309 30.4314 0.446875 30.3294 0.42959 30.2274C0.333691 29.709 0.253027 29.1844 0.189746 28.6557C0.176465 28.5516 0.165234 28.4475 0.154004 28.3425C0.0520508 27.4088 0 26.4606 0 25.5C0 11.4167 11.1949 0 25 0C38.8062 0 50 11.4167 50 25.5Z" fill="white"/>
</svg>
