<svg width="50" height="51" viewBox="0 0 50 51" fill="none" xmlns="http://www.w3.org/2000/svg">
<path d="M29.7852 25.5C29.7852 28.1957 27.6428 30.3809 25 30.3809C22.3572 30.3809 20.2148 28.1957 20.2148 25.5C20.2148 22.8043 22.3572 20.6191 25 20.6191C27.6428 20.6191 29.7852 22.8043 29.7852 25.5Z" fill="white"/>
<path d="M36.1909 16.8643C35.9608 16.2286 35.5939 15.6531 35.117 15.1807C34.6539 14.6943 34.0901 14.32 33.4664 14.0854C32.9606 13.885 32.2007 13.6465 30.8011 13.5815C29.287 13.5111 28.8331 13.4959 25.0001 13.4959C21.1667 13.4959 20.7127 13.5107 19.1991 13.5811C17.7994 13.6465 17.0392 13.885 16.5337 14.0854C15.91 14.32 15.3458 14.6943 14.8831 15.1807C14.4063 15.6531 14.0393 16.2282 13.8089 16.8643C13.6124 17.3803 13.3786 18.1558 13.3149 19.5834C13.2458 21.1273 13.231 21.5903 13.231 25.5004C13.231 29.41 13.2458 29.8731 13.3149 31.4174C13.3786 32.845 13.6124 33.6201 13.8089 34.136C14.0393 34.7722 14.4059 35.3473 14.8827 35.8197C15.3458 36.306 15.9096 36.6804 16.5333 36.915C17.0392 37.1158 17.7994 37.3543 19.1991 37.4193C20.7127 37.4897 21.1663 37.5045 24.9997 37.5045C28.8335 37.5045 29.2874 37.4897 30.8007 37.4193C32.2003 37.3543 32.9606 37.1158 33.4664 36.915C34.7184 36.4224 35.7079 35.4131 36.1909 34.136C36.3873 33.6201 36.6212 32.845 36.6852 31.4174C36.7543 29.8731 36.7688 29.41 36.7688 25.5004C36.7688 21.5903 36.7543 21.1273 36.6852 19.5834C36.6215 18.1558 36.3877 17.3803 36.1909 16.8643V16.8643ZM25.0001 33.0189C20.9286 33.0189 17.6282 29.6528 17.6282 25.5C17.6282 21.3471 20.9286 17.9811 25.0001 17.9811C29.0711 17.9811 32.3716 21.3471 32.3716 25.5C32.3716 29.6528 29.0711 33.0189 25.0001 33.0189ZM32.663 19.441C31.7116 19.441 30.9403 18.6542 30.9403 17.6838C30.9403 16.7134 31.7116 15.9266 32.663 15.9266C33.6144 15.9266 34.3857 16.7134 34.3857 17.6838C34.3854 18.6542 33.6144 19.441 32.663 19.441Z" fill="white"/>
<path d="M25 0C11.195 0 0 11.4189 0 25.5C0 39.5811 11.195 51 25 51C38.805 51 50 39.5811 50 25.5C50 11.4189 38.805 0 25 0ZM39.2689 31.5369C39.1994 33.0956 38.9565 34.1598 38.6017 35.0913C37.8559 37.0582 36.3316 38.613 34.4032 39.3737C33.4904 39.7356 32.4467 39.983 30.9189 40.0543C29.388 40.1255 28.899 40.1426 25.0004 40.1426C21.1014 40.1426 20.6127 40.1255 19.0815 40.0543C17.5537 39.983 16.51 39.7356 15.5972 39.3737C14.6389 39.006 13.7714 38.4298 13.0543 37.6846C12.3241 36.9535 11.7592 36.0683 11.3987 35.0913C11.0439 34.1602 10.8009 33.0956 10.7315 31.5373C10.6609 29.9754 10.6445 29.4766 10.6445 25.5C10.6445 21.5234 10.6609 21.0246 10.7311 19.4631C10.8006 17.9044 11.0432 16.8402 11.3979 15.9087C11.7584 14.9317 12.3238 14.0465 13.0543 13.3154C13.7711 12.5702 14.6389 11.994 15.5968 11.6263C16.51 11.2644 17.5533 11.017 19.0815 10.9457C20.6123 10.8745 21.1014 10.8574 25 10.8574C28.8986 10.8574 29.3877 10.8745 30.9185 10.9461C32.4467 11.017 33.49 11.2644 34.4032 11.6259C35.3611 11.9936 36.2289 12.5702 36.9461 13.3154C37.6762 14.0469 38.2416 14.9317 38.6017 15.9087C38.9568 16.8402 39.1994 17.9044 39.2693 19.4631C39.3391 21.0246 39.3555 21.5234 39.3555 25.5C39.3555 29.4766 39.3391 29.9754 39.2689 31.5369V31.5369Z" fill="white"/>
</svg>
