<svg width="46" height="46" viewBox="0 0 46 46" fill="none" xmlns="http://www.w3.org/2000/svg">
<circle cx="23" cy="23" r="23" fill="white"/>
<circle cx="22.9999" cy="23" r="16.1" fill="#ECECEC"/>
<path fill-rule="evenodd" clip-rule="evenodd" d="M32.2 22.7052C32.2 23.5308 28.0811 27.0103 23 27.0103C17.919 27.0103 13.8 23.4718 13.8 22.7052C13.8 21.9385 17.919 18.4 23 18.4C28.0811 18.4 32.2 21.8795 32.2 22.7052ZM22.9998 26.6563C25.1821 26.6563 26.9511 24.8873 26.9511 22.705C26.9511 20.5228 25.1821 18.7538 22.9998 18.7538C20.8176 18.7538 19.0486 20.5228 19.0486 22.705C19.0486 24.8873 20.8176 26.6563 22.9998 26.6563ZM23.0001 25.5948C24.5961 25.5948 25.8899 24.301 25.8899 22.705C25.8899 21.1091 24.5961 19.8153 23.0001 19.8153C21.4042 19.8153 20.1104 21.1091 20.1104 22.705C20.1104 24.301 21.4042 25.5948 23.0001 25.5948ZM22.2333 23.1769C23.0476 23.1769 23.7077 22.5168 23.7077 21.7025C23.7077 20.8883 23.0476 20.2282 22.2333 20.2282C21.4191 20.2282 20.759 20.8883 20.759 21.7025C20.759 22.5168 21.4191 23.1769 22.2333 23.1769Z" fill="url(#paint0_linear)"/>
<defs>
<linearGradient id="paint0_linear" x1="9.55389" y1="18.4246" x2="35.5911" y2="28.863" gradientUnits="userSpaceOnUse">
<stop stop-color="#313678"/>
<stop offset="1" stop-color="#393E46"/>
</linearGradient>
</defs>
</svg>
