<svg width="96" height="63" viewBox="0 0 96 63" fill="none" xmlns="http://www.w3.org/2000/svg">
<path d="M5.09844 33.0031C4.17453 32.1844 3.41337 31.4738 2.83012 30.913C3.41337 30.3523 4.17453 29.6416 5.09844 28.823C7.47329 26.7188 10.9132 23.9103 15.1614 21.1035C23.6924 15.4669 35.302 9.95652 48 9.95652C60.698 9.95652 72.3076 15.4669 80.8386 21.1035C85.0868 23.9103 88.5267 26.7188 90.9016 28.823C91.8255 29.6416 92.5866 30.3523 93.1699 30.913C92.5866 31.4738 91.8255 32.1844 90.9016 33.0031C88.5267 35.1073 85.0868 37.9158 80.8386 40.7226C72.3076 46.3592 60.698 51.8696 48 51.8696C35.302 51.8696 23.6924 46.3592 15.1614 40.7226C10.9132 37.9158 7.47329 35.1073 5.09844 33.0031Z" stroke="#060606" stroke-width="4"/>
<circle cx="48" cy="30.913" r="16.7826" stroke="black" stroke-width="4"/>
<circle cx="48" cy="30.913" r="8.43478" stroke="black" stroke-width="4"/>
<line x1="17.3684" y1="60.8032" x2="75.8032" y2="2.36839" stroke="black" stroke-width="4"/>
</svg>
